<svg version="1.1" xmlns="http://www.w3.org/2000/svg" viewBox="0 0 100 100">
    <rect width="100" height="100" rx="20" fill="#1B1A1C" />
    <g transform="translate(14, 15) scale(0.65)">
        <path fill="#EE3A24" d="M56.91,15.1H23.97c0,0-1.36,0.9,0,2.26s34.19,45,34.19,45s0.51,0.53,0.18,1.32 C58.01,64.46,46.2,79.7,46.2,79.7s-0.49,2.19,1.59,1.39l9.32-7.56c0,0,0.99-0.6,1.66,0.41c0,0,0.35,0.76,0.87,0.92 c0.52,0.16,1.13-0.15,1.34-0.77C61.2,73.47,71.7,61.7,71.7,61.7s0.72-0.62,1.56,0l5.29,8.33c0,0,1.3,1.05,1.96-0.18 c0.65-1.23,3.19-5.14,3.19-5.14s1.01-0.8,1.78,0.04s12.21,14.6,12.21,14.6s1.12,1.01,1.85,0c0.72-1.01,0.65-1.2,0.65-1.2 s0.62-1.12,1.81,0c1.2,1.12,9.71,7.86,9.71,7.86s1.99,0.8,1.54-1.54L97.68,64.09c0,0-0.47-0.76,0.33-1.7l34.31-45.55 c0,0,0.62-1.47-0.57-1.74c-1.2-0.27-32.96,0-32.96,0L79.22,41.54c0,0-0.8,1.36-2,0C76.02,40.19,56.91,15.1,56.91,15.1z"/>
        <path fill="#FFFFFF" d="M55.29,122.2H21.82c0,0-1.25-0.27-0.16-1.9s19.43-25.16,19.43-25.16l16.66-13.37c0,0,0.94-0.29,1.56,0.54 c0,0,0.87,1.34,2.06,0l10.8-12.43c0,0,0.87-0.83,1.52,0l5.43,8.66c0,0,0.76,0.87,1.45,0l3.37-5.65c0,0,0.62-0.72,1.59,0 l12.68,15.18c0,0,0.83,0.72,1.56-0.22c0.72-0.94,0.47-0.76,0.47-0.76s0.94-2.17,2.28-0.43c1.34,1.74,16.17,12.66,16.17,12.66 l15.49,20.97c0,0,1.09,1.63-0.27,1.9h-33.2L78.99,93.29c0,0-0.68-0.76-1.63,0L55.29,122.2z"/>
    </g>
</svg>
